<svg xmlns="http://www.w3.org/2000/svg" xmlns:xlink="http://www.w3.org/1999/xlink" width="500" zoomAndPan="magnify" viewBox="0 0 375 374.999991" height="500" preserveAspectRatio="xMidYMid meet" version="1.0"><defs><g/><clipPath id="5d36a34599"><path d="M 138 118.847656 L 212 118.847656 L 212 159 L 138 159 Z M 138 118.847656 " clip-rule="nonzero"/></clipPath><clipPath id="3ad34fe3fc"><path d="M 118.847656 142 L 175 142 L 175 207 L 118.847656 207 Z M 118.847656 142 " clip-rule="nonzero"/></clipPath><clipPath id="6c2e43b3b8"><path d="M 200 169 L 256.523438 169 L 256.523438 234 L 200 234 Z M 200 169 " clip-rule="nonzero"/></clipPath><clipPath id="5256c23003"><path d="M 163 216 L 237 216 L 237 256.523438 L 163 256.523438 Z M 163 216 " clip-rule="nonzero"/></clipPath></defs><g clip-path="url(#5d36a34599)"><path fill="#ff1616" d="M 211.230469 158.859375 L 200.410156 120.035156 C 178.847656 116.011719 155.71875 122.320312 139.03125 139.003906 C 138.949219 139.085938 138.867188 139.199219 138.757812 139.28125 Z M 211.230469 158.859375 " fill-opacity="1" fill-rule="nonzero"/></g><g clip-path="url(#3ad34fe3fc)"><path fill="#ff1616" d="M 174.910156 152.46875 L 136.195312 142.007812 C 120.253906 159.960938 115.296875 184.191406 121.328125 206.054688 Z M 174.910156 152.46875 " fill-opacity="1" fill-rule="nonzero"/></g><path fill="#ff1616" d="M 252.945312 165.742188 C 249.667969 155.964844 244.132812 146.796875 236.367188 139.003906 C 227.117188 129.753906 215.882812 123.695312 204.042969 120.804688 L 224.5 194.15625 Z M 252.945312 165.742188 " fill-opacity="1" fill-rule="nonzero"/><g clip-path="url(#6c2e43b3b8)"><path fill="#ff1616" d="M 200.296875 223.042969 L 238.902344 233.671875 C 255.066406 215.71875 260.105469 191.292969 254.019531 169.320312 Z M 200.296875 223.042969 " fill-opacity="1" fill-rule="nonzero"/></g><g clip-path="url(#5256c23003)"><path fill="#ff1616" d="M 163.429688 216.324219 L 173.5625 255.066406 C 195.507812 259.636719 219.269531 253.414062 236.3125 236.398438 Z M 163.429688 216.324219 " fill-opacity="1" fill-rule="nonzero"/></g><path fill="#ff1616" d="M 122.429688 209.632812 C 125.707031 219.40625 131.238281 228.578125 139.003906 236.367188 C 147.898438 245.261719 158.609375 251.210938 169.925781 254.210938 L 150.816406 181.242188 Z M 122.429688 209.632812 " fill-opacity="1" fill-rule="nonzero"/><g fill="#ff1616" fill-opacity="1"><g transform="translate(70.178525, 290.368113)"><g><path d="M 200.421875 -101.699219 C 200.421875 -78.503906 192.09375 -58.878906 176.039062 -42.820312 C 159.683594 -26.464844 140.058594 -18.4375 117.160156 -18.4375 C 94.261719 -18.4375 74.636719 -26.464844 58.582031 -42.820312 C 42.226562 -58.878906 34.195312 -78.503906 34.195312 -101.699219 C 34.195312 -124.296875 42.226562 -143.921875 58.582031 -160.277344 C 74.636719 -176.335938 94.261719 -184.660156 117.160156 -184.660156 C 140.058594 -184.660156 159.683594 -176.335938 176.039062 -160.277344 C 192.09375 -143.921875 200.421875 -124.296875 200.421875 -101.699219 Z M 221.238281 -101.699219 C 221.238281 -115.972656 218.261719 -129.351562 212.910156 -142.140625 C 207.558594 -154.628906 200.125 -165.628906 190.609375 -175.144531 C 181.09375 -184.363281 170.089844 -191.796875 157.601562 -197.152344 C 144.816406 -202.503906 131.433594 -205.476562 117.160156 -205.476562 C 102.886719 -205.476562 89.207031 -202.503906 76.71875 -197.152344 C 64.230469 -191.796875 53.226562 -184.363281 43.710938 -175.144531 C 34.195312 -165.628906 26.761719 -154.628906 21.410156 -142.140625 C 16.058594 -129.351562 13.382812 -115.972656 13.382812 -101.699219 C 13.382812 -87.425781 16.058594 -73.746094 21.410156 -61.257812 C 26.761719 -48.46875 34.195312 -37.46875 43.710938 -27.953125 C 53.226562 -18.4375 64.230469 -11.003906 76.71875 -5.648438 C 89.207031 -0.296875 102.886719 2.378906 117.160156 2.378906 C 131.433594 2.378906 144.816406 -0.296875 157.601562 -5.648438 C 170.089844 -11.003906 181.09375 -18.4375 190.609375 -27.953125 C 200.125 -37.46875 207.558594 -48.46875 212.910156 -61.257812 C 218.261719 -73.746094 221.238281 -87.425781 221.238281 -101.699219 Z M 221.238281 -101.699219 "/></g></g></g></svg>