<svg xmlns="http://www.w3.org/2000/svg" xmlns:xlink="http://www.w3.org/1999/xlink" width="500" zoomAndPan="magnify" viewBox="0 0 375 374.999991" height="500" preserveAspectRatio="xMidYMid meet" version="1.0"><defs><g/><clipPath id="a76cfe9938"><path d="M 135 114.960938 L 213 114.960938 L 213 158 L 135 158 Z M 135 114.960938 " clip-rule="nonzero"/></clipPath><clipPath id="958f7936df"><path d="M 114.960938 139 L 175 139 L 175 207 L 114.960938 207 Z M 114.960938 139 " clip-rule="nonzero"/></clipPath><clipPath id="aa0fa30f2a"><path d="M 200 168 L 259.984375 168 L 259.984375 236 L 200 236 Z M 200 168 " clip-rule="nonzero"/></clipPath><clipPath id="e47adbc9dc"><path d="M 161 217 L 239 217 L 239 259.984375 L 161 259.984375 Z M 161 217 " clip-rule="nonzero"/></clipPath></defs><g clip-path="url(#a76cfe9938)"><path fill="#ff1616" d="M 212.273438 157.105469 L 200.875 116.207031 C 178.164062 111.972656 153.796875 118.613281 136.222656 136.191406 C 136.132812 136.277344 136.046875 136.394531 135.929688 136.480469 Z M 212.273438 157.105469 " fill-opacity="1" fill-rule="nonzero"/></g><g clip-path="url(#958f7936df)"><path fill="#ff1616" d="M 174.015625 150.375 L 133.234375 139.355469 C 116.441406 158.265625 111.21875 183.789062 117.570312 206.820312 Z M 174.015625 150.375 " fill-opacity="1" fill-rule="nonzero"/></g><path fill="#ff1616" d="M 256.214844 164.355469 C 252.761719 154.058594 246.933594 144.402344 238.753906 136.191406 C 229.007812 126.445312 217.175781 120.066406 204.703125 117.019531 L 226.253906 194.289062 Z M 256.214844 164.355469 " fill-opacity="1" fill-rule="nonzero"/><g clip-path="url(#aa0fa30f2a)"><path fill="#ff1616" d="M 200.757812 224.714844 L 241.421875 235.910156 C 258.449219 217 263.757812 191.273438 257.347656 168.125 Z M 200.757812 224.714844 " fill-opacity="1" fill-rule="nonzero"/></g><g clip-path="url(#e47adbc9dc)"><path fill="#ff1616" d="M 161.917969 217.636719 L 172.59375 258.449219 C 195.710938 263.261719 220.742188 256.707031 238.695312 238.78125 Z M 161.917969 217.636719 " fill-opacity="1" fill-rule="nonzero"/></g><path fill="#ff1616" d="M 118.730469 210.589844 C 122.183594 220.886719 128.011719 230.546875 136.191406 238.753906 C 145.5625 248.121094 156.84375 254.386719 168.765625 257.550781 L 148.636719 180.6875 Z M 118.730469 210.589844 " fill-opacity="1" fill-rule="nonzero"/><g fill="#ff1616" fill-opacity="1"><g transform="translate(63.532685, 296.195207)"><g><path d="M 211.773438 -107.457031 C 211.773438 -82.949219 202.976562 -62.210938 186.011719 -45.246094 C 168.726562 -27.964844 147.992188 -19.480469 123.796875 -19.480469 C 99.601562 -19.480469 78.867188 -27.964844 61.898438 -45.246094 C 44.617188 -62.210938 36.132812 -82.949219 36.132812 -107.457031 C 36.132812 -131.339844 44.617188 -152.074219 61.898438 -169.355469 C 78.867188 -186.324219 99.601562 -195.121094 123.796875 -195.121094 C 147.992188 -195.121094 168.726562 -186.324219 186.011719 -169.355469 C 202.976562 -152.074219 211.773438 -131.339844 211.773438 -107.457031 Z M 233.769531 -107.457031 C 233.769531 -122.539062 230.628906 -136.679688 224.972656 -150.191406 C 219.316406 -163.386719 211.460938 -175.011719 201.40625 -185.066406 C 191.351562 -194.808594 179.726562 -202.664062 166.527344 -208.320312 C 153.019531 -213.972656 138.878906 -217.117188 123.796875 -217.117188 C 108.714844 -217.117188 94.261719 -213.972656 81.066406 -208.320312 C 67.867188 -202.664062 56.242188 -194.808594 46.1875 -185.066406 C 36.132812 -175.011719 28.277344 -163.386719 22.621094 -150.191406 C 16.96875 -136.679688 14.140625 -122.539062 14.140625 -107.457031 C 14.140625 -92.375 16.96875 -77.921875 22.621094 -64.726562 C 28.277344 -51.214844 36.132812 -39.589844 46.1875 -29.535156 C 56.242188 -19.480469 67.867188 -11.625 81.066406 -5.96875 C 94.261719 -0.3125 108.714844 2.511719 123.796875 2.511719 C 138.878906 2.511719 153.019531 -0.3125 166.527344 -5.96875 C 179.726562 -11.625 191.351562 -19.480469 201.40625 -29.535156 C 211.460938 -39.589844 219.316406 -51.214844 224.972656 -64.726562 C 230.628906 -77.921875 233.769531 -92.375 233.769531 -107.457031 Z M 233.769531 -107.457031 "/></g></g></g></svg>